<svg xmlns="http://www.w3.org/2000/svg" width="16" height="16" viewBox="0 0 16 16"><defs><style>.a{fill:#fff;}.b,.c{fill:none;}.c{font-size:12px;font-family:Montserrat-Regular, Montserrat;}</style></defs><path class="a" d="M13,16a1,1,0,0,1-1-1V9a1,1,0,0,1,.013-.163,3,3,0,0,1,0-5.669A1.1,1.1,0,0,1,12,2.991V1.01A1.006,1.006,0,0,1,13,0a1,1,0,0,1,1,1.01V2.991a1.086,1.086,0,0,1-.015.175,3,3,0,0,1,0,5.668A1.059,1.059,0,0,1,14,9V15A1,1,0,0,1,13,16ZM13,5a1,1,0,1,0,1,1A1,1,0,0,0,13,5ZM8,16a.994.994,0,0,1-1-1.01V13.829a3,3,0,0,1,.013-5.664A1.036,1.036,0,0,1,7,8V1A1,1,0,0,1,9,1V8a1,1,0,0,1-.014.163A3,3,0,0,1,9,13.829V14.99A1.006,1.006,0,0,1,8,16Zm0-6a1,1,0,1,0,1,1A1,1,0,0,0,8,10ZM3,16a1,1,0,0,1-1-1V9a1,1,0,0,1,.014-.163,3,3,0,0,1,0-5.669A1.1,1.1,0,0,1,2,2.991V1.01A1.006,1.006,0,0,1,3,0,.994.994,0,0,1,4,1.01V2.991a1.05,1.05,0,0,1-.014.175,3,3,0,0,1,0,5.669A1.036,1.036,0,0,1,4,9V15A1,1,0,0,1,3,16ZM3,5A1,1,0,1,0,4,6,1,1,0,0,0,3,5Z"/><g transform="translate(-707 -1299)"><rect class="b" width="16" height="16" transform="translate(707 1299)"/><text class="c" transform="translate(715 1312)"><tspan x="-5.82" y="0">16</tspan></text></g></svg>